<svg xmlns="http://www.w3.org/2000/svg" viewBox="0 0 200 200" fill="none" role="img" aria-label="KubeIntellect mark">
  <title>KubeIntellect</title>
  <defs>
    <linearGradient id="g" x1="0%" y1="0%" x2="100%" y2="100%">
      <stop offset="0%" stop-color="#00e676"/>
      <stop offset="100%" stop-color="#00d4ff"/>
    </linearGradient>
    <radialGradient id="hg" cx="50%" cy="50%" r="50%">
      <stop offset="0%" stop-color="#00e676" stop-opacity=".22"/>
      <stop offset="100%" stop-color="#00e676" stop-opacity="0"/>
    </radialGradient>
    <filter id="gl" x="-20%" y="-20%" width="140%" height="140%">
      <feGaussianBlur stdDeviation="2.5" result="b"/>
      <feMerge><feMergeNode in="b"/><feMergeNode in="SourceGraphic"/></feMerge>
    </filter>
  </defs>

  <!-- Outer ring -->
  <circle cx="100" cy="100" r="94" stroke="url(#g)" stroke-width="9" filter="url(#gl)"/>

  <!-- 7 spokes (Kubernetes helm geometry) -->
  <g stroke="url(#g)" stroke-width="9" stroke-linecap="round" filter="url(#gl)">
    <line x1="100" y1="66"   x2="100"  y2="16"/>
    <line x1="126.6" y1="78.8" x2="165.7" y2="47.7"/>
    <line x1="133.1" y1="107.6" x2="181.9" y2="118.7"/>
    <line x1="114.8" y1="130.6" x2="136.4" y2="175.7"/>
    <line x1="85.2"  y1="130.6" x2="63.6"  y2="175.7"/>
    <line x1="66.9"  y1="107.6" x2="18.1"  y2="118.7"/>
    <line x1="73.4"  y1="78.8"  x2="34.3"  y2="47.7"/>
  </g>

  <!-- Hub ring + dark fill to occlude spoke overlap -->
  <circle cx="100" cy="100" r="30" fill="#0a0a0a" stroke="url(#g)" stroke-width="9" filter="url(#gl)"/>
  <!-- Subtle glow inside hub -->
  <circle cx="100" cy="100" r="22" fill="url(#hg)"/>

  <!-- Neural net: triangle of 3 nodes + center, connecting K8s intelligence -->
  <g stroke="#00e676" stroke-width="1.8" opacity=".75">
    <line x1="100"   y1="100"  x2="100"   y2="87"/>
    <line x1="100"   y1="100"  x2="111.3" y2="106.5"/>
    <line x1="100"   y1="100"  x2="88.7"  y2="106.5"/>
    <line x1="100"   y1="87"   x2="111.3" y2="106.5"/>
    <line x1="111.3" y1="106.5" x2="88.7" y2="106.5"/>
    <line x1="88.7"  y1="106.5" x2="100"  y2="87"/>
  </g>
  <!-- Satellite nodes -->
  <g fill="#00e676">
    <circle cx="100"   cy="87"    r="3.5"/>
    <circle cx="111.3" cy="106.5" r="3.5"/>
    <circle cx="88.7"  cy="106.5" r="3.5"/>
  </g>
  <!-- Center core node -->
  <circle cx="100" cy="100" r="5.5" fill="#00d4ff"/>
  <circle cx="100" cy="100" r="3"   fill="#ffffff"/>
</svg>
